inDegrees=no
num_controls=7
num_derivatives=13
num_iterations=102
num_multipliers=7
num_parameters=0
num_slacks=7
num_states=26
objective=0.450697
objective_accelerations=0.044488
objective_balance=0.007665
objective_effort=0.035269
objective_height=0.358344
objective_ligament=0.004931
solver_duration=1520.576876
status=Solve_Succeeded
success=true
DataType=double
version=3
OpenSimVersion=4.5
endheader
time	/jointset/ground_pelvis/pelvis_tilt/value	/jointset/ground_pelvis/pelvis_tx/value	/jointset/ground_pelvis/pelvis_ty/value	/jointset/hip_l/hip_flexion_l/value	/jointset/hip_l/hip_adduction_l/value	/jointset/hip_l/hip_rotation_l/value	/jointset/back/lumbar_extension/value	/jointset/patellofemoral_l/patellar_flexion_l/value	/jointset/knee_l/knee_flexion_l/value	/jointset/knee_l/knee_adduction_l/value	/jointset/knee_l/knee_rotation_l/value	/jointset/ankle_l/ankle_angle_l/value	/jointset/subtalar_l/subtalar_angle_l/value	/jointset/ground_pelvis/pelvis_tilt/speed	/jointset/ground_pelvis/pelvis_tx/speed	/jointset/ground_pelvis/pelvis_ty/speed	/jointset/hip_l/hip_flexion_l/speed	/jointset/hip_l/hip_adduction_l/speed	/jointset/hip_l/hip_rotation_l/speed	/jointset/back/lumbar_extension/speed	/jointset/patellofemoral_l/patellar_flexion_l/speed	/jointset/knee_l/knee_flexion_l/speed	/jointset/knee_l/knee_adduction_l/speed	/jointset/knee_l/knee_rotation_l/speed	/jointset/ankle_l/ankle_angle_l/speed	/jointset/subtalar_l/subtalar_angle_l/speed	/forceset/tau_hip_flexion_l	/forceset/tau_hip_adduction_l	/forceset/tau_hip_rotation_l	/forceset/tau_knee_flexion_l	/forceset/tau_ankle_angle_l	/forceset/tau_subtalar_angle_l	/forceset/tau_lumbar_extension	lambda_cid13_p0	lambda_cid13_p1	lambda_cid13_p2	lambda_cid13_p3	lambda_cid13_p4	lambda_cid13_p5	lambda_cid14_p0	/jointset/ground_pelvis/pelvis_tilt/accel	/jointset/ground_pelvis/pelvis_tx/accel	/jointset/ground_pelvis/pelvis_ty/accel	/jointset/hip_l/hip_flexion_l/accel	/jointset/hip_l/hip_adduction_l/accel	/jointset/hip_l/hip_rotation_l/accel	/jointset/back/lumbar_extension/accel	/jointset/patellofemoral_l/patellar_flexion_l/accel	/jointset/knee_l/knee_flexion_l/accel	/jointset/knee_l/knee_adduction_l/accel	/jointset/knee_l/knee_rotation_l/accel	/jointset/ankle_l/ankle_angle_l/accel	/jointset/subtalar_l/subtalar_angle_l/accel	gamma_cid13_p0	gamma_cid13_p1	gamma_cid13_p2	gamma_cid13_p3	gamma_cid13_p4	gamma_cid13_p5	gamma_cid14_p0
0	-0.1601339079952956	0.05856202992497083	0.8979976153118333	0.3774924667018715	-0.2591531860431582	-0.2726910426826735	-0.01265067647494873	0.0322364824372146	0.03223648243721463	-0.1745323247998339	0.1742608151133234	-0.04231377076293093	-0.009280861855895151	0	0	0	0	0	0	0	0	0	0	0	0	0	0.1469173477307721	-0.07563021669819643	-0.05100017044874013	-0.3011807410056893	0.302846205948088	-0.04583593999806992	-0.09137974144614619	54.73460919405873	3.944148226155658	6.25486202269335	-3.007477454217304	-592.6598950174321	-69.95472050428478	-39.0656246023361	-4.195042233569287	-2.096549144802381	-1.045260499584223	11.77690152471601	-1.090042937015885	2.829080563779643	-5.581858135974414	8.07154208072337	8.071542080716746	0.1430186131614599	-0.03999265777126468	0.5821337785623234	-0.9840072987222211	-3.625579322578843e-08	1.574454892909209e-07	2.401654716737609e-08	2.436580647182361e-08	2.71735837559813e-08	3.996150829783707e-08	1.353633104893886e-09
0.01	-0.160335635942208	0.05845798753128371	0.8979465186382454	0.3780664259273162	-0.2592080282972827	-0.2725508399488406	-0.01293127880517553	0.03263123296216443	0.03263123296216448	-0.1745281352431314	0.1742571601835743	-0.042287342863998	-0.009330989331175876	-0.04000518289313254	-0.02076494878983045	-0.01017935886876391	0.1141844334995551	-0.01096481283871503	0.02783301047298392	-0.05580907446313877	0.0786525216287875	0.07865252162877177	0.0007350706002297617	-0.0006292221535337972	0.005214553908588936	-0.01003601882506595	0.1379221799331268	-0.08562403257992229	-0.04891529280142005	-0.288369431440873	0.2822214335308896	-0.02829681960357578	-0.08457172404767736	48.77135500252498	-2.341889027707444	6.929112277080073	0.3839741825639711	-593.2395449632814	-81.64959957737929	-39.07678083736804	-3.852201253665521	-2.059933380775008	-0.998271768483026	11.14809677536832	-1.099179665149393	2.729283584726802	-5.533723364149496	7.717469429052627	7.717469429054369	0.02335310825202668	-0.05911704872086959	0.4804591454149657	-1.015004555096951	-4.228059350650378e-08	1.040025967680812e-07	7.736082026675433e-08	1.912495639598962e-08	-4.619609604945433e-08	2.817390179138228e-08	-1.213976665121492e-08
0.02	-0.1609272047053479	0.05814760252275795	0.8977948287383777	0.3797640059903151	-0.2593724145213644	-0.2721385326511438	-0.0137606301325669	0.03380358114842141	0.0338035811484214	-0.1745196746154676	0.1742502670213746	-0.04221090083629762	-0.009481798070846896	-0.07796816324547645	-0.04126852296772652	-0.02011864525595012	0.2247241675108327	-0.02190879399144583	0.05442091277272927	-0.1097497994329139	0.1555195322614225	0.1555195322614227	0.0008542141923199371	-0.0006476464901248905	0.01000282575348935	-0.02013625287805865	0.1289270121354818	-0.09561784846164813	-0.04683041515410007	-0.2755581218760564	0.2615966611136915	-0.01075769920908163	-0.0777637066492082	42.87705932037191	-8.639045459302098	7.604047379745704	3.684479897755109	-592.7429297490455	-93.24983089611091	-39.10999418361831	-3.786601725411579	-2.044274222415505	-0.9972460032686837	11.04796162706053	-1.08587659982029	2.580058929131931	-5.208188237301777	7.714439881492881	7.714439881492583	0.01983321152640738	0.0821669056172758	0.4968773658246192	-0.9968503443075717	-4.830539378721912e-08	5.055970424524144e-08	1.307050933661326e-07	1.388410632015562e-08	-1.1956577585489e-07	1.638629528492748e-08	-2.563316640732373e-08
0.03	-0.1618899610777273	0.05763452621820978	0.8975448088379813	0.3825494752730572	-0.2596449486570424	-0.27146495310281	-0.01511948909589407	0.03573503864791056	0.03573503864791056	-0.1745109763643858	0.1742444219362896	-0.0420873814841824	-0.009732488859594842	-0.1143834202779888	-0.06119719478795441	-0.02985340477931043	0.3317782589758247	-0.03248477811031515	0.08025202302968128	-0.1616920512802184	0.2303914273440652	0.2303914273440645	0.0009744909383174894	-0.0006100611301623169	0.01475724320434441	-0.02987841637420918	0.1249144313719372	-0.09019594805308119	-0.04651797085414337	-0.2738698530726583	0.2625921848502902	-0.0147061439609283	-0.07412783583579677	43.07626520666186	-7.066408536956353	7.475879434002452	2.453247622026091	-592.9877378650118	-89.45076878757379	-39.16447818060301	-3.539040691735508	-1.944729433088672	-0.9568256298659996	10.44540944154334	-1.026480665967526	2.578169627835692	-5.1377523655988	7.316488458950619	7.316488458950674	0.02150131308203514	-0.04877030153440844	0.4731515548161983	-0.944398635226074	-7.218369340361071e-08	1.203819478904682e-07	1.289067262973194e-07	3.91173474018637e-08	-2.217769770046297e-07	3.835806901669464e-08	-2.214751132564594e-08
0.04	-0.1632108806203448	0.05692665004120687	0.8971983944017521	0.3863877407775141	-0.2600198469035184	-0.270534355941135	-0.01698787231912512	0.03840379992568627	0.03840379992568626	-0.174498400064455	0.1742362877742601	-0.04191463243353859	-0.01007690113989575	-0.1496007972930783	-0.08022849745867218	-0.03939755242252304	0.4352834118538082	-0.04238161615107679	0.1058244354409876	-0.2116546514136894	0.3029802879187343	0.3029802879187342	0.001629823962139313	-0.001105461879006395	0.01984876545920944	-0.03888055118865092	0.1209018506083928	-0.08477404764451424	-0.04620552655418684	-0.2721815842692601	0.263587708586889	-0.01865458871277495	-0.07049196502238479	43.33889909082001	-5.503516773549293	7.347713286198554	1.132664815980977	-592.2622595432831	-85.56135528585182	-39.23884265701886	-3.547025721926974	-1.864800392513482	-0.9591236272391447	10.33817390965874	-0.9500473841987529	2.528319360002804	-4.812257894535056	7.257832979898158	7.257832979898149	0.1268444670912625	-0.02443031614409318	0.5642983266266148	-0.8488446079658134	-9.643010640836677e-08	1.927457407350365e-07	1.259713975755538e-07	6.497892026001594e-08	-3.24582848697551e-07	6.102591244409525e-08	-1.831177263906533e-08
0.05	-0.1648787578899034	0.05603226557795836	0.8967571151429108	0.3912450123619779	-0.260491144045455	-0.2693510906861909	-0.01934503319120588	0.04178756630176196	0.04178756630176196	-0.1744785099607511	0.1742224249651117	-0.04169041483783008	-0.01050869830003931	-0.1838124964738831	-0.09856412882222422	-0.04885741347859961	0.5356772566877008	-0.05185184064802738	0.1306143110298377	-0.2593917811928324	0.3734023080706355	0.373402308070635	0.00223068044512326	-0.001584231587016554	0.02492339871623628	-0.04746953364458593	0.1138892992701763	-0.08248591878505727	-0.04504496722328542	-0.2652965909364366	0.2549828226703992	-0.0164222259039912	-0.06496370128353671	40.74608672783789	-6.041189684146555	7.458722049844674	2.242559456915909	-591.2373559696912	-85.49158773854205	-39.33135700618004	-3.333925287562874	-1.805291348190098	-0.9393502120417527	9.815928561862016	-0.9416396861177444	2.422161927447196	-4.696579248158478	6.878788280329545	6.878788280329508	0.009119296805803956	-0.04718162099982114	0.4683364483554542	-0.8625666560308516	-1.05060986477291e-07	1.454599707431588e-07	1.678033198421308e-07	6.904172474047595e-08	-3.874088356587237e-07	4.573895996343192e-08	-2.888438260352933e-08
